<?xml version="1.0" standalone="no"?>
<!DOCTYPE svg PUBLIC "-//W3C//DTD SVG 20010904//EN"
 "http://www.w3.org/TR/2001/REC-SVG-20010904/DTD/svg10.dtd">
<svg version="1.0" xmlns="http://www.w3.org/2000/svg"
 width="1152.000000pt" height="351.000000pt" viewBox="0 0 1152.000000 351.000000"
 preserveAspectRatio="xMidYMid meet">
<metadata>
Created by potrace 1.10, written by Peter Selinger 2001-2011
</metadata>
<g transform="translate(0.000000,351.000000) scale(0.100000,-0.100000)"
fill="#000000" stroke="none">
<path d="M3540 2697 c-57 -27 -70 -47 -70 -112 1 -66 13 -87 67 -117 66 -37
149 -7 185 67 l22 45 -22 45 c-36 74 -113 104 -182 72z"/>
<path d="M5659 2691 c0 -3 0 -246 1 -540 l1 -534 31 -47 c33 -51 67 -72 142
-90 88 -20 192 5 170 42 -4 7 -10 42 -13 78 l-6 65 -37 -3 c-20 -2 -46 2 -57
8 -21 11 -21 16 -21 519 l0 508 -105 0 c-58 0 -105 -3 -106 -6z"/>
<path d="M2595 2060 l0 -570 110 0 110 0 0 237 0 237 145 -3 c80 -2 177 -6
215 -11 44 -4 75 -3 83 3 9 7 12 36 10 101 l-3 91 -40 -1 c-22 0 -123 -2 -225
-4 l-185 -4 -3 158 -3 158 253 -3 253 -3 3 92 3 92 -363 0 -363 0 0 -570z
m169 7 c8 -12 8 -22 0 -34 -16 -25 -38 -22 -42 5 -7 50 18 67 42 29z"/>
<path d="M4168 2554 c-4 -3 -41 -10 -84 -15 -43 -6 -84 -15 -91 -21 -10 -8
-13 -34 -11 -87 l3 -76 -62 3 c-35 1 -63 -1 -64 -5 0 -4 -1 -44 -2 -88 l-1
-80 54 -2 c30 -1 61 -2 68 -2 11 -1 13 -45 11 -228 -3 -232 6 -315 38 -354 7
-8 13 -20 13 -26 0 -6 24 -26 53 -46 68 -46 152 -60 252 -43 64 10 135 38 135
52 0 4 -12 42 -27 85 -28 79 -41 92 -69 65 -7 -8 -31 -17 -53 -21 -55 -9 -107
16 -120 58 -5 18 -11 128 -13 244 l-4 212 130 3 130 3 0 85 1 85 -130 0 -130
0 4 65 c8 118 7 134 -9 138 -9 1 -19 0 -22 -4z m-36 -251 c24 -22 23 -58 -4
-83 -29 -27 -42 -25 -67 6 -27 34 -27 59 1 78 29 20 47 20 70 -1z"/>
<path d="M3495 2349 c-3 -3 -5 -197 -5 -430 l-1 -424 110 -3 111 -3 -2 433 -3
433 -103 0 c-57 0 -105 -2 -107 -6z"/>
<path d="M4620 2353 c-4 -106 1 -1207 5 -1212 11 -10 206 -7 214 4 6 8 0 220
-12 405 -3 52 22 49 81 -8 48 -47 54 -50 129 -60 128 -18 232 15 302 94 79 90
111 189 111 343 0 212 -68 355 -201 419 -37 18 -63 22 -142 22 -109 0 -157
-17 -202 -73 -14 -18 -30 -38 -36 -45 -19 -24 -44 -9 -41 23 1 17 4 44 5 60
l2 30 -107 3 c-60 1 -108 -1 -108 -5z m521 -196 c47 -34 67 -73 84 -156 16
-75 16 -87 0 -163 -16 -80 -25 -98 -70 -144 -50 -50 -172 -50 -239 1 -64 49
-95 166 -76 291 13 85 36 131 84 168 51 39 167 41 217 3z"/>
<path d="M6309 2341 c-26 -9 -53 -22 -60 -28 -8 -5 -18 -12 -24 -14 -28 -11
-115 -72 -115 -81 0 -6 14 -27 30 -48 17 -21 30 -42 30 -47 0 -5 10 -19 23
-31 l23 -22 34 31 c53 49 101 76 158 89 61 14 132 6 162 -18 30 -25 37 -82 13
-111 -21 -25 -118 -61 -167 -61 -36 0 -127 -26 -185 -53 -108 -49 -157 -152
-130 -273 24 -112 85 -171 201 -193 119 -23 219 13 274 100 13 22 29 37 34 34
6 -4 19 -25 29 -49 29 -64 65 -78 181 -74 l95 3 -2 79 c-2 84 -11 100 -50 90
-12 -3 -31 -3 -42 1 -21 6 -21 12 -21 254 0 229 -2 252 -20 295 -23 50 -84
116 -109 116 -9 0 -25 7 -35 15 -29 22 -264 19 -327 -4z m295 -429 c9 -16 -16
-175 -33 -203 -33 -54 -66 -71 -136 -71 -74 0 -108 19 -126 71 -13 39 0 98 28
123 22 19 108 48 142 48 14 0 40 9 56 20 31 21 60 26 69 12z"/>
<path d="M6950 2348 c0 -7 13 -40 29 -73 15 -33 36 -80 45 -105 10 -25 24 -58
32 -73 8 -16 14 -36 14 -46 0 -9 7 -26 15 -37 8 -10 15 -27 15 -36 0 -9 6 -29
14 -45 8 -15 22 -48 31 -73 9 -25 23 -58 31 -73 8 -16 14 -36 14 -46 0 -9 7
-26 15 -37 8 -10 15 -27 15 -37 0 -11 6 -31 14 -45 8 -15 27 -57 42 -94 24
-61 25 -70 14 -100 -19 -47 -47 -80 -83 -100 -41 -22 -144 -23 -171 -3 -34 26
-56 19 -56 -17 0 -17 -8 -56 -17 -86 l-17 -54 23 -19 c20 -16 41 -19 145 -19
92 0 127 4 142 15 10 8 25 15 32 15 23 0 82 52 115 99 40 58 87 150 87 170 0
9 7 25 15 35 8 11 15 29 15 40 0 12 7 30 15 40 8 11 15 29 15 40 0 12 7 30 15
40 8 11 15 29 15 40 0 12 7 30 15 40 8 11 15 29 15 40 0 12 7 30 15 40 8 11
15 28 15 37 0 10 6 30 14 46 8 15 22 47 30 71 9 23 23 61 32 85 9 23 22 59 30
80 32 86 48 125 75 182 16 33 29 64 29 68 0 4 -53 6 -117 5 l-118 -3 -5 -35
c-4 -20 -10 -42 -14 -49 -5 -7 -12 -27 -16 -45 -5 -17 -18 -56 -30 -86 -12
-30 -25 -68 -30 -85 -5 -16 -14 -46 -21 -65 -6 -19 -17 -51 -24 -70 -25 -72
-35 -107 -35 -126 0 -11 -6 -27 -12 -36 -18 -23 -58 -6 -58 24 0 24 -22 99
-46 156 -8 18 -14 41 -14 50 0 10 -6 26 -14 37 -7 11 -16 31 -19 45 -5 26 -22
75 -42 125 -19 47 -36 97 -44 130 l-7 30 -117 3 c-89 2 -117 0 -117 -10z m460
-743 c0 -8 -4 -15 -10 -15 -5 0 -10 7 -10 15 0 8 5 15 10 15 6 0 10 -7 10 -15z"/>
<path d="M5922 944 c-15 -10 -22 -25 -22 -48 0 -42 30 -70 75 -70 45 0 75 28
75 70 0 39 -29 64 -75 64 -17 0 -41 -7 -53 -16z"/>
<path d="M6670 954 c-13 -4 -15 -41 -12 -272 2 -282 9 -337 47 -372 25 -24
120 -38 144 -21 24 16 3 85 -27 89 -45 7 -48 28 -42 307 3 168 1 263 -5 267
-10 8 -79 9 -105 2z"/>
<path d="M3075 605 l0 -315 213 0 212 0 0 50 c0 31 -5 52 -12 55 -7 3 -71 1
-143 -3 -106 -7 -132 -6 -141 5 -7 8 -11 46 -10 91 l1 77 130 0 130 0 3 41 c4
51 -16 75 -56 69 -15 -2 -66 -6 -113 -9 -73 -5 -88 -3 -93 10 -9 22 -7 117 2
131 5 9 48 11 152 10 l145 -2 3 53 3 52 -213 0 -213 0 0 -315z"/>
<path d="M5602 867 c-43 -10 -43 -10 -40 -51 3 -41 3 -41 -37 -46 -40 -5 -40
-5 -40 -50 0 -45 0 -45 40 -50 l39 -5 1 -152 0 -153 38 -37 c37 -37 38 -38
117 -38 101 0 119 13 99 71 -18 54 -24 59 -50 40 -30 -21 -52 -20 -71 2 -11
12 -17 50 -21 144 -6 145 -5 147 74 129 37 -9 46 -8 57 7 7 9 11 26 8 37 -3
11 -6 29 -6 39 0 17 -6 18 -59 13 -71 -8 -85 3 -71 52 17 60 4 68 -78 48z"/>
<path d="M3638 744 c-66 -43 -87 -118 -50 -179 22 -36 63 -57 154 -82 75 -20
99 -44 79 -82 -10 -18 -21 -21 -70 -21 -51 0 -61 4 -87 30 -37 38 -55 37 -83
0 -30 -41 -24 -59 28 -94 41 -27 52 -30 135 -30 86 -1 94 1 129 28 61 47 80
112 53 178 -17 40 -52 60 -151 84 -38 10 -76 22 -82 27 -16 12 -17 49 -1 65
20 20 102 15 128 -8 30 -26 41 -25 74 5 35 33 30 54 -19 82 -33 18 -55 23
-120 22 -68 0 -86 -4 -117 -25z"/>
<path d="M4083 752 c-53 -28 -73 -63 -73 -124 1 -82 35 -112 162 -143 83 -20
96 -33 84 -81 -6 -22 -11 -24 -64 -24 -57 0 -96 16 -115 47 -4 7 -13 13 -18
13 -13 0 -69 -61 -69 -76 0 -14 27 -37 70 -60 51 -26 195 -26 235 0 57 36 74
66 75 127 0 50 -3 59 -34 90 -29 28 -50 38 -120 54 -95 22 -120 43 -95 84 11
17 24 21 65 21 33 0 56 -5 64 -15 23 -28 50 -28 80 0 36 34 30 58 -21 85 -52
26 -178 28 -226 2z"/>
<path d="M4571 750 c-39 -22 -81 -59 -81 -73 0 -6 -7 -18 -16 -28 -23 -26 -21
-206 4 -252 43 -81 98 -110 212 -111 91 0 122 11 167 63 25 29 30 61 9 61 -7
0 -19 7 -26 15 -19 23 -42 18 -74 -15 -24 -25 -37 -30 -77 -30 -40 0 -53 5
-83 34 -23 22 -36 42 -36 59 l0 26 158 3 157 3 -4 74 c-4 87 -26 131 -82 167
-33 20 -50 24 -116 23 -54 -1 -88 -7 -112 -19z m176 -92 c28 -31 36 -63 21
-76 -21 -17 -178 -18 -189 -1 -13 21 -12 25 22 64 27 31 37 35 78 35 36 0 52
-5 68 -22z"/>
<path d="M4989 768 c0 -2 -1 -110 -2 -241 l-2 -238 65 3 c58 3 65 5 63 23 -13
124 -14 228 -3 274 11 45 17 54 51 71 53 27 75 25 111 -11 l31 -30 -6 -165 -6
-164 64 0 65 0 -6 178 c-3 97 -10 191 -16 207 -6 17 -25 45 -42 63 -28 30 -34
32 -98 32 -66 0 -70 -1 -112 -40 -23 -22 -46 -37 -49 -33 -4 3 -7 21 -7 40 l0
33 -50 0 c-27 0 -50 -1 -51 -2z"/>
<path d="M5925 762 c-6 -4 -10 -96 -10 -240 l0 -233 65 3 65 3 -5 35 c-3 19
-5 123 -4 230 0 129 -3 197 -10 202 -6 4 -29 8 -51 8 -22 0 -44 -4 -50 -8z"/>
<path d="M6225 744 c-76 -37 -82 -46 -58 -86 18 -31 63 -52 63 -30 0 18 80 52
120 52 55 0 87 -39 62 -76 -8 -13 -109 -44 -141 -44 -29 0 -87 -33 -111 -63
-26 -33 -27 -111 -1 -150 32 -50 60 -62 134 -61 64 0 70 2 95 32 34 40 43 40
64 2 16 -28 21 -30 78 -30 l60 0 0 44 c0 41 -2 45 -27 48 l-28 3 -3 140 c-2
158 -13 192 -70 225 -50 30 -171 27 -237 -6z m189 -274 c-2 -63 -24 -89 -80
-97 -51 -6 -77 13 -77 57 0 38 33 69 74 70 14 0 34 7 45 15 30 23 39 12 38
-45z"/>
<path d="M6984 752 c-51 -28 -69 -60 -69 -126 0 -55 2 -60 40 -92 22 -18 46
-34 54 -34 8 0 45 -9 83 -21 l69 -20 -3 -37 -3 -37 -61 -3 c-56 -3 -64 0 -94
28 -17 16 -35 30 -39 30 -4 0 -22 -16 -41 -35 -33 -34 -33 -35 -15 -55 45 -50
83 -64 180 -64 80 0 95 3 124 25 67 50 89 125 54 187 -21 36 -56 55 -148 78
-99 25 -126 52 -87 87 26 24 97 22 129 -3 33 -26 42 -25 76 5 36 32 29 58 -23
85 -51 26 -180 27 -226 2z"/>
</g>
</svg>
